<svg width="395" height="79" viewBox="0 0 395 79" fill="none" xmlns="http://www.w3.org/2000/svg">
<path d="M39.5006 39.1555C40.1291 32.0102 43.4004 25.3563 48.6746 20.4951C53.9489 15.6338 60.8469 12.9147 68.0196 12.8696C71.9565 12.8711 75.8501 13.6914 79.4529 15.2785C83.0558 16.8656 86.2891 19.1848 88.9475 22.0886C73.2787 3.13005 45.2097 0.4638 26.2512 16.1326C19.5347 21.6836 14.5944 29.0832 12.0424 37.4146C11.9846 37.9959 11.8873 38.5672 11.8506 39.1555H39.5006Z" fill="#EE4F50"/>
<path d="M40.9482 39.8453C39.8746 54.5929 30.3114 66.1298 18.6589 66.1298C12.2034 66.1298 6.39836 62.5776 2.31152 56.9136C8.66538 66.7561 18.3118 73.0747 29.1687 73.0747C44.9489 73.0747 58.204 59.7674 62.4009 41.5862C62.4474 41.0035 62.5236 40.435 62.5518 39.8453H40.9482Z" fill="white"/>
<path d="M60.2372 30.7152C60.2372 32.0544 59.8401 33.3636 59.096 34.4772C58.352 35.5907 57.2944 36.4586 56.0571 36.9711C54.8198 37.4837 53.4583 37.6177 52.1447 37.3565C50.8312 37.0952 49.6246 36.4503 48.6776 35.5033C47.7306 34.5563 47.0857 33.3497 46.8245 32.0362C46.5632 30.7227 46.6973 29.3612 47.2098 28.1238C47.7223 26.8865 48.5902 25.829 49.7038 25.0849C50.8173 24.3409 52.1265 23.9437 53.4658 23.9437C55.2617 23.9437 56.984 24.6571 58.2539 25.927C59.5238 27.1969 60.2372 28.9193 60.2372 30.7152Z" fill="white"/>
<path d="M103.711 26.4269C103.387 25.702 102.858 25.088 102.188 24.6603C101.519 24.2327 100.74 24.0101 99.9459 24.0202C99.0059 24.0211 98.1002 24.3733 97.4066 25.0077C97.0546 25.2878 96.7697 25.6431 96.5727 26.0476C96.3757 26.452 96.2716 26.8954 96.2681 27.3452C96.2416 27.7917 96.3277 28.2376 96.5185 28.6421C96.7093 29.0466 96.9987 29.3967 97.36 29.6602C98.3955 30.3387 99.5127 30.8834 100.685 31.2811C101.647 31.6206 102.447 31.9371 103.083 32.2305C103.726 32.5276 104.328 32.907 104.873 33.3591C105.448 33.8425 105.91 34.4458 106.226 35.1267C106.59 35.9406 106.765 36.8259 106.738 37.7168C106.766 38.6115 106.602 39.5019 106.258 40.328C105.913 41.1541 105.395 41.8968 104.739 42.5062C103.407 43.7564 101.634 44.4301 99.8076 44.381C98.1061 44.4139 96.4425 43.8766 95.0817 42.8546C93.7316 41.8401 92.7825 40.382 92.4014 38.7368L94.4596 38.0892C94.8226 39.3035 95.5046 40.3981 96.4346 41.2591C97.3686 42.0651 98.5734 42.487 99.8062 42.4399C101.067 42.4614 102.284 41.9815 103.191 41.1056C104.098 40.2297 104.62 39.0296 104.642 37.769C104.642 37.7225 104.642 37.6745 104.642 37.6279C104.679 37.1351 104.602 36.6404 104.417 36.1821C104.231 35.7239 103.943 35.3145 103.574 34.9857C102.635 34.2832 101.581 33.7508 100.458 33.4127C99.4357 33.0431 98.6066 32.7139 97.9709 32.4252C97.3243 32.1257 96.7098 31.7613 96.1369 31.3376C95.5529 30.9133 95.0678 30.3675 94.7149 29.7378C94.3437 29.0497 94.1594 28.2763 94.1803 27.4948C94.1614 26.7601 94.3059 26.0303 94.6033 25.3582C94.9007 24.6861 95.3435 24.0884 95.8999 23.6083C96.8972 22.728 98.1546 22.1975 99.4811 22.0974C100.807 21.9973 102.13 22.3332 103.248 23.0538C104.231 23.6282 105.022 24.4808 105.521 25.5043L103.711 26.4269Z" fill="white"/>
<path d="M114.223 5.74158V25.8696H114.315C114.899 24.7072 115.803 23.736 116.921 23.0708C118.062 22.404 119.365 22.0625 120.687 22.0833C123.32 22.0833 125.157 22.831 126.197 24.3263C127.238 25.8217 127.755 28.0506 127.749 31.0131V43.9211H125.661V31.0131C125.67 30.0621 125.616 29.1115 125.498 28.1677C125.4 27.4198 125.16 26.6974 124.792 26.0389C124.433 25.4029 123.893 24.8879 123.241 24.5591C122.381 24.167 121.441 23.9847 120.497 24.0273C119.381 23.9846 118.276 24.2626 117.313 24.8285C116.478 25.3481 115.808 26.0949 115.383 26.9813C114.938 27.9106 114.633 28.9002 114.476 29.9184C114.3 31.0591 114.214 32.212 114.22 33.3662V43.9155H112.127V5.74158H114.223Z" fill="white"/>
<path d="M153.795 43.9153H151.702V40.0753H151.607C150.793 41.438 149.597 42.5315 148.166 43.2198C146.7 43.9784 145.074 44.3756 143.424 44.378C141.928 44.3953 140.446 44.0953 139.074 43.4977C137.794 42.9358 136.647 42.1083 135.71 41.0699C134.77 40.0172 134.043 38.7915 133.571 37.4613C132.587 34.6461 132.579 31.5816 133.549 28.7614C134.007 27.4576 134.727 26.2613 135.665 25.2459C136.602 24.2377 137.744 23.4409 139.014 22.9084C140.384 22.3396 141.856 22.0563 143.339 22.076C144.975 22.0672 146.592 22.4396 148.059 23.1637C149.493 23.8578 150.717 24.9188 151.609 26.2391H151.702V22.5359H153.797L153.795 43.9153ZM139.891 24.7592C138.876 25.247 137.974 25.9402 137.24 26.7949C136.495 27.6624 135.912 28.6574 135.519 29.732C135.12 30.8059 134.916 31.9424 134.916 33.0881C134.911 34.2921 135.107 35.4884 135.497 36.6276C135.87 37.7335 136.454 38.7568 137.216 39.6408C137.961 40.51 138.881 41.2123 139.915 41.7019C140.999 42.2054 142.183 42.4585 143.378 42.4425C144.558 42.4955 145.734 42.2718 146.812 41.7893C147.889 41.3067 148.839 40.5787 149.586 39.6634C151.117 37.7337 151.916 35.3247 151.843 32.8624C151.915 30.5269 151.063 28.2573 149.471 26.5466C148.671 25.7078 147.701 25.0491 146.627 24.6144C145.552 24.1797 144.397 23.979 143.239 24.0256C142.082 24.0127 140.937 24.2636 139.891 24.7592Z" fill="white"/>
<path d="M161.244 25.8696H161.339C161.921 24.707 162.824 23.7357 163.942 23.0708C165.084 22.4042 166.386 22.0627 167.708 22.0833C170.342 22.0833 172.176 22.831 173.21 24.3263C174.245 25.8217 174.762 28.0506 174.762 31.0131V43.9155H172.671V31.006C172.681 30.055 172.626 29.1044 172.509 28.1606C172.413 27.4132 172.176 26.6908 171.811 26.0319C171.451 25.3933 170.909 24.8762 170.255 24.5464C169.396 24.1543 168.456 23.972 167.512 24.0145C166.395 23.9735 165.288 24.2541 164.325 24.8229C163.491 25.3433 162.822 26.0898 162.396 26.9756C161.951 27.9048 161.646 28.8945 161.49 29.9127C161.313 31.0534 161.228 32.2063 161.233 33.3605V43.9155H159.14V22.5389H161.233L161.244 25.8696Z" fill="white"/>
<path d="M183.779 43.9153H181.684V24.4813H179.312V22.5387H181.684V14.9039H183.779V22.5387H187.545V24.4813H183.779V43.9153Z" fill="white"/>
<path d="M205.237 22.254C206.017 32.8965 212.953 41.2197 221.4 41.2197C226.083 41.2197 230.288 38.6578 233.25 34.571C228.644 41.6697 221.647 46.2319 213.774 46.2319C202.332 46.2319 192.716 36.6292 189.672 23.5096C189.64 23.0863 189.585 22.6787 189.563 22.254H205.237Z" fill="white"/>
<path d="M192.026 16.8002C192.022 17.6851 192.28 18.5514 192.769 19.2893C193.257 20.0272 193.953 20.6035 194.77 20.9452C195.586 21.287 196.485 21.3787 197.354 21.2088C198.222 21.0389 199.02 20.6151 199.648 19.9909C200.275 19.3668 200.703 18.5706 200.877 17.703C201.051 16.8355 200.964 15.9357 200.627 15.1178C200.289 14.2998 199.716 13.6005 198.981 13.1084C198.245 12.6164 197.38 12.3537 196.496 12.3537C195.91 12.3522 195.33 12.466 194.789 12.6887C194.247 12.9113 193.755 13.2384 193.34 13.6513C192.925 14.0642 192.595 14.5548 192.37 15.0951C192.145 15.6354 192.028 16.2148 192.026 16.8002Z" fill="white"/>
<path d="M217.59 22.254C216.81 32.8965 209.875 41.2197 201.427 41.2197C196.745 41.2197 192.54 38.6578 189.577 34.571C194.182 41.6697 201.179 46.2319 209.053 46.2319C220.496 46.2319 230.111 36.6292 233.156 23.5096C233.188 23.0863 233.243 22.6787 233.264 22.254H217.59Z" fill="#EE4F50"/>
<path d="M230.679 16.8001C230.684 17.685 230.426 18.5512 229.937 19.2891C229.449 20.0271 228.752 20.6034 227.936 20.9451C227.12 21.2868 226.221 21.3786 225.352 21.2087C224.484 21.0388 223.685 20.6149 223.058 19.9908C222.431 19.3667 222.003 18.5704 221.829 17.7029C221.654 16.8354 221.742 15.9356 222.079 15.1177C222.417 14.2997 222.99 13.6004 223.725 13.1083C224.46 12.6162 225.325 12.3535 226.21 12.3535C226.796 12.352 227.376 12.4659 227.917 12.6885C228.459 12.9112 228.951 13.2383 229.366 13.6512C229.781 14.0641 230.11 14.5547 230.336 15.095C230.561 15.6353 230.678 16.2147 230.679 16.8001Z" fill="#EE4F50"/>
<path d="M237.656 25.8161H237.749C239.005 23.4433 241.331 22.0072 244.123 22.0072C249.658 22.0072 251.193 25.4493 251.193 30.9864V43.965H249.1V30.9864C249.1 27.1239 248.636 23.961 243.936 23.961C238.539 23.961 237.656 28.986 237.656 33.3578V43.9664H235.562V22.4643H237.656V25.8161Z" fill="#EE4F50"/>
<path d="M260.452 43.9579H258.358V24.4181H255.985V22.4643H258.358V12.8376C258.358 11.2561 258.405 8.97643 259.195 7.58123C260.172 5.85875 262.033 4.97564 263.991 4.97564C264.626 4.9663 265.258 5.07686 265.852 5.30152V7.20457C265.288 7.11147 264.736 6.92243 264.131 6.92243C260.502 6.92243 260.463 10.5508 260.463 13.2495V22.4615H265.859V24.4153H260.463L260.452 43.9579Z" fill="#EE4F50"/>
<path d="M289.902 33.211C289.902 39.5846 284.924 44.422 278.596 44.422C272.409 44.422 267.431 39.3519 267.431 33.2576C267.431 27.0688 272.368 21.9987 278.596 21.9987C284.922 21.9987 289.902 26.8374 289.902 33.211ZM269.524 33.2576C269.524 38.1415 273.387 42.4681 278.457 42.4681C283.715 42.4681 287.808 38.4673 287.808 33.2576C287.808 27.9533 283.761 23.9469 278.457 23.9469C273.339 23.9525 269.523 28.2792 269.523 33.2576H269.524Z" fill="#EE4F50"/>
<path d="M303.997 26.3719C303.672 25.6461 303.143 25.0306 302.474 24.6009C301.804 24.1713 301.024 23.9459 300.229 23.9526C298.415 23.9526 296.561 25.4409 296.561 27.3016C296.561 32.4662 307.029 29.9537 307.029 37.7225C307.029 41.6725 303.958 44.422 300.097 44.422C296.515 44.422 293.583 42.2354 292.7 38.7467L294.747 38.095C295.537 40.654 297.26 42.4682 300.097 42.4682C300.733 42.4727 301.364 42.3506 301.953 42.1091C302.542 41.8677 303.077 41.5115 303.528 41.0615C303.978 40.6114 304.334 40.0764 304.576 39.4874C304.817 38.8985 304.94 38.2674 304.935 37.6308C304.935 34.9787 302.888 34.1407 300.748 33.3987C297.817 32.328 294.468 31.0724 294.468 27.4427C294.468 24.1867 297.213 22.0001 300.329 22.0001C302.516 22.0001 304.889 23.4419 305.818 25.4423L303.997 26.3719Z" fill="#EE4F50"/>
<path d="M332.794 33.211C332.794 39.5846 327.816 44.422 321.489 44.422C315.301 44.422 310.324 39.3519 310.324 33.2576C310.324 27.0688 315.255 21.9987 321.489 21.9987C327.816 21.9987 332.794 26.8374 332.794 33.211ZM312.418 33.2576C312.418 38.1415 316.279 42.4681 321.349 42.4681C326.607 42.4681 330.701 38.4673 330.701 33.2576C330.701 27.9533 326.653 23.9469 321.349 23.9469C316.232 23.9525 312.418 28.2792 312.418 33.2576Z" fill="#EE4F50"/>
<path d="M339.96 43.9581H337.867V24.4183H335.494V22.4645H337.867V12.8378C337.867 11.2564 337.914 8.97666 338.704 7.58146C339.681 5.85898 341.542 4.97587 343.5 4.97587C344.135 4.96667 344.766 5.07722 345.361 5.30175V7.2048C344.796 7.11169 344.245 6.92266 343.64 6.92266C340.011 6.92266 339.972 10.551 339.972 13.2497V22.4617H345.368V24.4155H339.972L339.96 43.9581Z" fill="#EE4F50"/>
<path d="M351.357 43.9579H349.263V24.4181H346.895V22.4642H349.267V14.7871H351.361V22.4642H355.129V24.4181H351.361L351.357 43.9579Z" fill="#EE4F50"/>
<path d="M364.073 42.8109V28.0662H362.644V44.1483H370.353V42.8109H364.073Z" fill="white"/>
<path d="M373.253 28.0662V44.1483H380.964V42.8109H374.682V28.0662H373.253Z" fill="white"/>
<path d="M389.713 36.4994C390.213 36.3936 390.687 36.1888 391.108 35.897C391.614 35.5253 392.012 35.0258 392.262 34.4496C392.541 33.7922 392.685 33.0852 392.685 32.371C392.685 31.6567 392.541 30.9497 392.262 30.2923C392.012 29.7161 391.614 29.2166 391.108 28.8449C390.684 28.5584 390.208 28.3576 389.707 28.2538C389.154 28.1296 388.268 28.0662 387.075 28.0662H383.862V44.1554H385.245V36.6927H387.079C388.275 36.6856 389.162 36.6236 389.713 36.4994ZM385.245 35.4386V29.3259H386.514C388.255 29.3259 389.421 29.5545 390.075 30.0313C390.751 30.5152 391.094 31.3433 391.094 32.4916C391.094 33.575 390.756 34.3523 390.092 34.8023C389.453 35.2354 388.283 35.4456 386.514 35.4456L385.245 35.4386Z" fill="white"/>
<path d="M94.3369 57.3847V62.0401H98.569V62.8047H94.3369V69.435H93.5215V56.6201H98.6903V57.3847H94.3369Z" fill="white"/>
<path d="M108.447 65.5123C108.447 67.8414 106.628 69.6034 104.316 69.6034C103.229 69.6034 102.187 69.1717 101.419 68.4033C100.65 67.6349 100.219 66.5927 100.219 65.506C100.219 64.4193 100.65 63.3771 101.419 62.6087C102.187 61.8403 103.229 61.4086 104.316 61.4086C106.628 61.4142 108.447 63.1818 108.447 65.5123ZM101.001 65.5293C101.001 67.3138 102.412 68.8952 104.265 68.8952C106.187 68.8952 107.682 67.4323 107.682 65.5293C107.682 63.5909 106.204 62.128 104.265 62.128C102.395 62.128 101.007 63.7094 101.007 65.5293H101.001Z" fill="white"/>
<path d="M111.065 62.6046H111.099C111.405 61.8908 111.967 61.4139 112.799 61.4139C113.087 61.4149 113.372 61.4789 113.633 61.6016L113.224 62.2815C113.06 62.1814 112.872 62.1282 112.681 62.1278C110.964 62.1278 111.065 64.2706 111.065 65.426V69.4381H110.301V61.5846H111.065V62.6046Z" fill="white"/>
<path d="M115.927 62.5708H115.961C116.318 61.8387 117.101 61.4141 117.936 61.4141C118.406 61.3996 118.869 61.5285 119.264 61.7835C119.658 62.0385 119.966 62.4076 120.146 62.8417C120.57 61.9078 121.439 61.4141 122.442 61.4141C124.465 61.4141 124.872 62.7909 124.872 64.5077V69.4452H124.108V64.4062C124.108 63.1986 123.92 62.1279 122.425 62.1279C120.793 62.1279 120.402 63.5555 120.402 64.9169V69.4382H119.629V64.5938C119.629 63.3693 119.409 62.1279 117.878 62.1279C116.229 62.1279 115.923 63.8447 115.923 65.12V69.4382H115.158V61.5847H115.923L115.927 62.5708Z" fill="white"/>
<path d="M127.487 65.5798C127.436 67.5689 128.813 68.895 130.633 68.895C131.858 68.895 132.844 68.1642 133.404 67.109L134.05 67.4828C133.726 68.1351 133.223 68.6815 132.6 69.058C131.977 69.4346 131.259 69.6256 130.532 69.6088C128.202 69.6088 126.723 67.7212 126.723 65.4937C126.723 63.3015 128.236 61.4139 130.532 61.4139C132.911 61.4139 134.322 63.3184 134.305 65.5798H127.487ZM133.541 64.8645C133.353 63.42 132.164 62.1278 130.549 62.1278C128.933 62.1278 127.624 63.3861 127.487 64.8645H133.541Z" fill="white"/>
<path d="M136.921 62.6046H136.955C137.261 61.8908 137.823 61.4139 138.656 61.4139C138.944 61.4151 139.228 61.4791 139.489 61.6016L139.081 62.2815C138.916 62.1806 138.726 62.1274 138.532 62.1278C136.815 62.1278 136.917 64.2706 136.917 65.426V69.4381H136.152V61.5846H136.917L136.921 62.6046Z" fill="white"/>
<path d="M141.647 69.4382H140.883V55.4128H141.647V69.4382Z" fill="white"/>
<path d="M142.837 61.5848H143.635L146.984 68.6906L149.993 61.5848H150.776L145.506 74.0288H144.723L146.611 69.5751L142.837 61.5848Z" fill="white"/>
<path d="M158.121 64.917L161.352 61.5848H162.339L159.041 64.9847L163.444 69.4383H162.441L158.547 65.5123L158.124 65.9538V69.4383H157.359V55.413H158.124L158.121 64.917Z" fill="white"/>
<path d="M165.379 62.8078H165.413C165.633 62.3816 165.968 62.0253 166.379 61.7791C166.791 61.5329 167.263 61.4064 167.743 61.414C169.766 61.414 170.326 62.6724 170.326 64.6953V69.4382H169.568V64.6953C169.568 63.2846 169.398 62.1278 167.681 62.1278C165.706 62.1278 165.386 63.9618 165.386 65.5629V69.4382H164.621V61.5847H165.386L165.379 62.8078Z" fill="white"/>
<path d="M180.388 65.5123C180.388 67.8414 178.57 69.6034 176.258 69.6034C175.171 69.6034 174.129 69.1717 173.36 68.4033C172.592 67.6349 172.16 66.5927 172.16 65.506C172.16 64.4193 172.592 63.3771 173.36 62.6087C174.129 61.8403 175.171 61.4086 176.258 61.4086C178.57 61.4142 180.388 63.1818 180.388 65.5123ZM172.942 65.5293C172.942 67.3138 174.353 68.8952 176.207 68.8952C178.127 68.8952 179.624 67.4323 179.624 65.5293C179.624 63.5909 178.144 62.128 176.207 62.128C174.336 62.128 172.942 63.7094 172.942 65.5293Z" fill="white"/>
<path d="M184.571 68.0275L187.343 61.1587L190.13 68.0275L192.844 61.5847H193.627L190.074 69.8642L187.303 63.0801L184.548 69.8642L181.013 61.5847H181.794L184.571 68.0275Z" fill="white"/>
<path d="M195.792 62.8081H195.826C196.046 62.3818 196.381 62.0254 196.792 61.7791C197.204 61.5328 197.676 61.4065 198.155 61.4143C200.178 61.4143 200.738 62.6726 200.738 64.6956V69.4384H199.974V64.6956C199.974 63.2849 199.804 62.1281 198.086 62.1281C196.111 62.1281 195.792 63.962 195.792 65.5632V69.4384H195.026V61.585H195.792V62.8081Z" fill="white"/>
<path d="M215.528 69.4382H214.763V68.0275H214.729C214.151 69.0305 212.895 69.6089 211.737 69.6089C209.357 69.6089 207.86 67.7552 207.86 65.46C207.86 63.1648 209.34 61.4141 211.703 61.4141C212.909 61.4141 214.066 61.9586 214.729 62.9447H214.763V61.5848H215.528V69.4382ZM208.625 65.4572C208.625 67.2601 209.816 68.8923 211.72 68.8923C213.726 68.8923 214.814 67.2601 214.814 65.3725C214.814 63.5527 213.572 62.1279 211.669 62.1279C209.866 62.1279 208.625 63.7643 208.625 65.4572Z" fill="white"/>
<path d="M221.443 63.0124C221.324 62.7469 221.131 62.5218 220.886 62.3647C220.641 62.2076 220.356 62.1253 220.065 62.1279C219.402 62.1279 218.722 62.6724 218.722 63.3524C218.722 65.2399 222.548 64.3216 222.548 67.1613C222.548 68.6059 221.419 69.6089 220.009 69.6089C218.699 69.6089 217.629 68.8091 217.306 67.5352L218.053 67.2968C218.335 68.2321 218.972 68.8951 220.009 68.8951C220.241 68.8966 220.472 68.8519 220.687 68.7635C220.903 68.6751 221.098 68.5449 221.263 68.3803C221.427 68.2157 221.558 68.0201 221.646 67.8048C221.734 67.5895 221.779 67.3588 221.778 67.1261C221.778 66.1583 221.029 65.8564 220.247 65.5743C219.176 65.1821 217.952 64.7279 217.952 63.3976C217.952 62.2069 218.955 61.4084 220.095 61.4084C220.511 61.4197 220.917 61.5423 221.27 61.7637C221.622 61.985 221.909 62.2969 222.101 62.6668L221.443 63.0124Z" fill="white"/>
<path d="M235.791 58.728C235.215 57.8096 234.398 57.2157 233.192 57.2157C232.871 57.2149 232.554 57.2779 232.259 57.401C231.963 57.5242 231.695 57.705 231.47 57.9328C231.246 58.1607 231.068 58.4311 230.949 58.7282C230.83 59.0253 230.771 59.3432 230.776 59.6633C230.776 61.0063 232.046 61.5677 233.089 62.0615L235.538 63.3311C236.507 63.9434 236.999 64.7249 236.999 65.8817C236.999 68.0063 235.061 69.6046 232.987 69.6046C231.202 69.6046 229.807 68.5 229.212 66.8509L229.927 66.5278C230.47 67.8877 231.479 68.84 233.021 68.84C234.704 68.84 236.184 67.5139 236.184 65.8126C236.184 64.368 234.704 63.7558 233.599 63.2112L231.287 61.9881C230.441 61.4605 229.961 60.7185 229.961 59.6929C229.961 57.7884 231.321 56.4483 233.242 56.4483C233.876 56.4458 234.5 56.6114 235.049 56.928C235.599 57.2447 236.054 57.7012 236.37 58.2512L235.791 58.728Z" fill="white"/>
<path d="M239.803 55.4128V62.8078H239.837C240.056 62.3815 240.391 62.0251 240.802 61.7788C241.214 61.5326 241.686 61.4062 242.166 61.414C244.189 61.414 244.75 62.6724 244.75 64.6953V69.4382H243.984V64.6953C243.984 63.2846 243.815 62.1278 242.098 62.1278C240.123 62.1278 239.803 63.9618 239.803 65.5629V69.4382H239.038V55.4128H239.803Z" fill="white"/>
<path d="M254.271 69.4381H253.506V68.0274H253.472C252.894 69.0304 251.638 69.6088 250.48 69.6088C248.099 69.6088 246.604 67.7551 246.604 65.4599C246.604 63.1646 248.082 61.4139 250.445 61.4139C251.652 61.4139 252.808 61.9585 253.472 62.9446H253.506V61.5846H254.271V69.4381ZM247.368 65.457C247.368 67.2599 248.559 68.8921 250.462 68.8921C252.468 68.8921 253.557 67.2599 253.557 65.3724C253.557 63.5526 252.316 62.1278 250.411 62.1278C248.61 62.1278 247.368 63.7642 247.368 65.457Z" fill="white"/>
<path d="M257.652 62.8081H257.686C257.906 62.3818 258.241 62.0254 258.652 61.7791C259.064 61.5328 259.536 61.4065 260.015 61.4143C262.038 61.4143 262.6 62.6726 262.6 64.6956V69.4384H261.828V64.6956C261.828 63.2849 261.659 62.1281 259.942 62.1281C257.967 62.1281 257.647 63.962 257.647 65.5632V69.4384H256.891V61.585H257.657L257.652 62.8081Z" fill="white"/>
<path d="M266.068 69.4383H265.302V62.2987H264.436V61.5848H265.302V58.7789H266.068V61.5848H267.445V62.2987H266.068V69.4383Z" fill="white"/>
<path d="M270.152 58.9681C270.152 59.153 270.078 59.3302 269.947 59.4609C269.817 59.5916 269.64 59.665 269.455 59.665C269.27 59.665 269.093 59.5916 268.962 59.4609C268.831 59.3302 268.758 59.153 268.758 58.9681C268.758 58.7833 268.831 58.606 268.962 58.4754C269.093 58.3447 269.27 58.2712 269.455 58.2712C269.64 58.2712 269.817 58.3447 269.947 58.4754C270.078 58.606 270.152 58.7833 270.152 58.9681ZM269.829 69.4399H269.063V61.585H269.829V69.4399Z" fill="white"/>
<path d="M278.898 69.4379H278.083V56.6201H278.898V69.4379Z" fill="white"/>
<path d="M282.353 62.8078H282.387C282.607 62.3815 282.941 62.0251 283.353 61.7789C283.764 61.5326 284.236 61.4062 284.716 61.414C286.739 61.414 287.3 62.6724 287.3 64.6954V69.4382H286.534V64.6954C286.534 63.2846 286.365 62.1279 284.648 62.1279C282.673 62.1279 282.353 63.9618 282.353 65.563V69.4382H281.587V61.5847H282.353V62.8078Z" fill="white"/>
<path d="M290.682 69.4386H289.918V62.2989H289.056V61.5851H289.923V58.0654C289.923 57.487 289.94 56.6547 290.229 56.144C290.41 55.8437 290.667 55.5971 290.975 55.4297C291.283 55.2623 291.63 55.1801 291.98 55.1918C292.212 55.1889 292.443 55.2296 292.66 55.3117V56.0057C292.454 55.954 292.243 55.92 292.031 55.9042C290.705 55.9042 290.688 57.2302 290.688 58.2163V61.5823H292.663V62.2961H290.688L290.682 69.4386Z" fill="white"/>
<path d="M301.442 65.5125C301.442 67.8416 299.623 69.6035 297.311 69.6035C296.225 69.6035 295.182 69.1718 294.414 68.4034C293.646 67.635 293.214 66.5928 293.214 65.5061C293.214 64.4194 293.646 63.3772 294.414 62.6088C295.182 61.8404 296.225 61.4087 297.311 61.4087C299.623 61.4143 301.442 63.182 301.442 65.5125ZM293.996 65.5294C293.996 67.3139 295.407 68.8954 297.26 68.8954C299.182 68.8954 300.677 67.4324 300.677 65.5294C300.677 63.5911 299.199 62.1282 297.26 62.1282C295.39 62.1282 293.992 63.7096 293.992 65.5294H293.996Z" fill="white"/>
<path d="M304.15 69.4383H303.385V62.2987H302.518V61.5848H303.385V58.7789H304.15V61.5848H305.527V62.2987H304.15V69.4383Z" fill="white"/>
<path d="M306.848 65.5799C306.797 67.569 308.174 68.8951 309.994 68.8951C311.217 68.8951 312.203 68.1643 312.765 67.1091L313.411 67.483C313.087 68.1364 312.582 68.6836 311.958 69.0602C311.333 69.4369 310.613 69.6272 309.884 69.6089C307.555 69.6089 306.075 67.7214 306.075 65.4939C306.075 63.3016 307.587 61.4141 309.884 61.4141C312.264 61.4141 313.676 63.3185 313.659 65.5799H306.848ZM312.9 64.8647C312.714 63.4201 311.523 62.1279 309.908 62.1279C308.293 62.1279 306.985 63.3862 306.848 64.8647H312.9Z" fill="white"/>
<path d="M321.537 63.4028C320.789 62.5874 319.888 62.1331 318.767 62.1331C316.913 62.1331 315.522 63.7145 315.522 65.4991C315.522 67.2836 316.899 68.9003 318.751 68.9003C319.307 68.8925 319.854 68.7619 320.354 68.5181C320.854 68.2742 321.293 67.923 321.642 67.4896V68.5279C320.853 69.2252 319.839 69.6118 318.786 69.6155C316.457 69.6155 314.756 67.7957 314.756 65.5005C314.756 63.2053 316.491 61.4207 318.803 61.4207C319.803 61.4012 320.775 61.7456 321.54 62.3899L321.537 63.4028Z" fill="white"/>
<path d="M324.392 55.413V62.8079H324.425C324.645 62.3816 324.98 62.0252 325.391 61.779C325.803 61.5327 326.275 61.4063 326.754 61.4141C328.777 61.4141 329.339 62.6725 329.339 64.6955V69.4383H328.574V64.6955C328.574 63.2848 328.404 62.128 326.687 62.128C324.712 62.128 324.392 63.9619 324.392 65.5631V69.4383H323.627V55.413H324.392Z" fill="white"/>
</svg>
