<svg width="306" height="215" viewBox="0 0 306 215" fill="none" xmlns="http://www.w3.org/2000/svg">
<g clip-path="url(#clip0_6874_195771)">
<path fill-rule="evenodd" clip-rule="evenodd" d="M152.909 12.7707L70.8759 60.1378V154.872L152.909 202.239L234.952 154.872V60.1378L152.909 12.7707ZM152.909 0L199.459 26.8962L246.01 53.7923V161.257L199.459 188.154L152.909 215.05L106.359 188.154L59.8086 161.257V53.7525L106.359 26.8563L152.909 0Z" fill="#EE4F50"/>
<path fill-rule="evenodd" clip-rule="evenodd" d="M152.908 17.9531L75.3672 62.7303V152.265L152.908 197.032L230.448 152.265V62.7303L152.908 17.9531Z" fill="url(#paint0_diamond_6874_195771)"/>
<path fill-rule="evenodd" clip-rule="evenodd" d="M152.909 150.109L156.714 161.914L169.116 161.894L159.075 169.156L162.93 180.95L152.909 173.639L142.887 180.95L146.742 169.156L136.701 161.894L149.103 161.914L152.909 150.109Z" fill="white"/>
<path d="M296.863 119.169C288.987 126.521 281.35 134.015 273.952 141.652C277.365 151.733 280.53 161.831 283.445 171.945C265.913 167.456 257.206 163.803 239.395 160.988C242.231 143.057 245.073 125.126 247.922 107.195C267.367 110.283 277.714 114.285 296.893 119.199M9.00469 119.199C16.8876 126.551 24.5248 134.045 31.9162 141.682C28.4961 151.763 25.3317 161.861 22.4229 171.975C39.9552 167.486 48.6616 163.833 66.4728 161.018C63.6305 143.087 60.7848 125.156 57.9358 107.225C38.4975 110.273 28.1508 114.255 8.96484 119.169L9.00469 119.199Z" fill="url(#paint1_diamond_6874_195771)"/>
<path d="M66.4828 160.991C57.5174 156.468 47.6156 154.625 37.6641 153.689L64.4008 147.852L66.4828 160.991ZM239.385 160.991C248.351 156.468 258.252 154.625 268.204 153.689L241.467 147.852L239.385 160.991Z" fill="#07253B"/>
<path d="M153.357 153.379C115.42 153.094 90.008 157.27 53.2166 165.847C52.0465 166.12 50.8812 165.346 50.6919 164.16L42.1411 110.574C41.9702 109.504 42.6642 108.48 43.7202 108.234C83.7492 98.8958 112.263 94.345 153.407 94.6469C194.55 94.3453 221.132 98.8958 261.1 108.233C262.156 108.48 262.852 109.504 262.681 110.575L254.13 164.136C253.941 165.322 252.775 166.096 251.605 165.823C214.855 157.247 191.327 153.079 153.357 153.379Z" fill="#EE4F50"/>
<path fill-rule="evenodd" clip-rule="evenodd" d="M74.6607 110.562L77.8982 117.426L85.4192 116.44L79.9005 121.64L83.1579 128.483L76.5036 124.837L71.0048 130.057L72.4193 122.606L65.7451 118.99L73.276 118.024L74.6607 110.562Z" fill="white"/>
<path fill-rule="evenodd" clip-rule="evenodd" d="M238.878 110.562L235.64 117.426L228.119 116.44L233.648 121.64L230.38 128.483L237.035 124.837L242.533 130.057L241.129 122.606L247.793 118.99L240.262 118.024L238.878 110.562Z" fill="white"/>
<path d="M114.336 81.8125V57.6461C114.061 57.796 113.749 57.9458 113.399 58.0957C113.049 58.2456 112.675 58.4079 112.275 58.5828C111.9 58.7326 111.526 58.8825 111.151 59.0324C110.801 59.1823 110.477 59.3321 110.177 59.482V54.836C110.452 54.6862 110.839 54.4864 111.338 54.2366C111.838 53.9618 112.375 53.6621 112.949 53.3374C113.524 53.0126 114.061 52.6879 114.56 52.3632C115.06 52.0135 115.435 51.7138 115.685 51.464H120.593V81.8125H114.336ZM134.219 82.3745C132.395 82.3745 130.871 82.0123 129.648 81.288C128.424 80.5386 127.499 79.5145 126.875 78.2156C126.25 76.9168 125.938 75.4056 125.938 73.6821V59.9316C125.938 58.1581 126.226 56.6095 126.8 55.2857C127.399 53.9368 128.311 52.8877 129.535 52.1384C130.759 51.3891 132.32 51.0144 134.219 51.0144C136.117 51.0144 137.666 51.3891 138.864 52.1384C140.088 52.8877 140.988 53.9368 141.562 55.2857C142.162 56.6095 142.461 58.1581 142.461 59.9316V73.6821C142.461 75.3806 142.149 76.8918 141.525 78.2156C140.9 79.5145 139.976 80.5386 138.752 81.288C137.528 82.0123 136.017 82.3745 134.219 82.3745ZM134.219 76.7919C134.818 76.7919 135.243 76.6045 135.492 76.2299C135.767 75.8302 135.93 75.3806 135.979 74.8811C136.054 74.3565 136.092 73.9069 136.092 73.5322V60.0815C136.092 59.6568 136.067 59.1823 136.017 58.6577C135.967 58.1082 135.805 57.6336 135.53 57.234C135.28 56.8093 134.843 56.597 134.219 56.597C133.594 56.597 133.144 56.8093 132.87 57.234C132.62 57.6336 132.47 58.1082 132.42 58.6577C132.37 59.1823 132.345 59.6568 132.345 60.0815V73.5322C132.345 73.9069 132.383 74.3565 132.458 74.8811C132.533 75.3806 132.695 75.8302 132.945 76.2299C133.219 76.6045 133.644 76.7919 134.219 76.7919ZM154.818 82.3745C152.995 82.3745 151.471 82.0123 150.247 81.288C149.023 80.5386 148.099 79.5145 147.475 78.2156C146.85 76.9168 146.538 75.4056 146.538 73.6821V59.9316C146.538 58.1581 146.825 56.6095 147.4 55.2857C147.999 53.9368 148.911 52.8877 150.135 52.1384C151.359 51.3891 152.92 51.0144 154.818 51.0144C156.717 51.0144 158.265 51.3891 159.464 52.1384C160.688 52.8877 161.587 53.9368 162.162 55.2857C162.761 56.6095 163.061 58.1581 163.061 59.9316V73.6821C163.061 75.3806 162.749 76.8918 162.124 78.2156C161.5 79.5145 160.576 80.5386 159.352 81.288C158.128 82.0123 156.617 82.3745 154.818 82.3745ZM154.818 76.7919C155.418 76.7919 155.842 76.6045 156.092 76.2299C156.367 75.8302 156.529 75.3806 156.579 74.8811C156.654 74.3565 156.692 73.9069 156.692 73.5322V60.0815C156.692 59.6568 156.667 59.1823 156.617 58.6577C156.567 58.1082 156.404 57.6336 156.13 57.234C155.88 56.8093 155.443 56.597 154.818 56.597C154.194 56.597 153.744 56.8093 153.469 57.234C153.22 57.6336 153.07 58.1082 153.02 58.6577C152.97 59.1823 152.945 59.6568 152.945 60.0815V73.5322C152.945 73.9069 152.982 74.3565 153.057 74.8811C153.132 75.3806 153.295 75.8302 153.544 76.2299C153.819 76.6045 154.244 76.7919 154.818 76.7919ZM177.554 81.8125L186.883 51.464H190.255L180.963 81.8125H177.554ZM173.882 68.6989C171.309 68.6989 169.486 68.037 168.412 66.7132C167.337 65.3644 166.8 63.3411 166.8 60.6435V59.2947C166.8 56.5471 167.325 54.5488 168.374 53.2999C169.423 52.051 171.259 51.4265 173.882 51.4265C176.504 51.4265 178.34 52.0385 179.389 53.2624C180.464 54.4863 181.001 56.4721 181.001 59.2197V60.7184C181.001 63.3911 180.464 65.3893 179.389 66.7132C178.315 68.037 176.479 68.6989 173.882 68.6989ZM173.882 64.8023C174.531 64.8023 174.993 64.64 175.268 64.3153C175.568 63.9656 175.755 63.466 175.83 62.8166C175.905 62.1422 175.942 61.3429 175.942 60.4187V59.482C175.942 58.0582 175.855 57.0216 175.68 56.3722C175.505 55.6978 174.906 55.3606 173.882 55.3606C172.883 55.3606 172.283 55.6853 172.083 56.3347C171.908 56.9842 171.821 58.0208 171.821 59.4445V60.4561C171.821 61.3803 171.859 62.1671 171.933 62.8166C172.008 63.466 172.196 63.9656 172.495 64.3153C172.795 64.64 173.257 64.8023 173.882 64.8023ZM193.964 81.85C191.391 81.85 189.568 81.188 188.494 79.8642C187.445 78.5154 186.92 76.4921 186.92 73.7945V72.4457C186.92 69.6981 187.432 67.6998 188.457 66.4509C189.506 65.202 191.342 64.5775 193.964 64.5775C196.587 64.5775 198.423 65.1895 199.472 66.4134C200.546 67.6374 201.083 69.6231 201.083 72.3707V73.832C201.083 76.5296 200.546 78.5404 199.472 79.8642C198.398 81.188 196.562 81.85 193.964 81.85ZM193.964 77.9534C194.614 77.9534 195.076 77.791 195.351 77.4663C195.65 77.1166 195.838 76.617 195.913 75.9676C195.987 75.3182 196.025 74.5314 196.025 73.6072V72.5955C196.025 71.1718 195.938 70.1352 195.763 69.4858C195.588 68.8363 194.988 68.5116 193.964 68.5116C192.965 68.5116 192.366 68.8363 192.166 69.4858C191.991 70.1352 191.904 71.1718 191.904 72.5955V73.6072C191.904 74.5314 191.941 75.3182 192.016 75.9676C192.091 76.617 192.278 77.1166 192.578 77.4663C192.878 77.791 193.34 77.9534 193.964 77.9534Z" fill="white"/>
<path d="M133.189 102.412H136.12V119.709C136.12 121.253 135.836 122.565 135.269 123.644C134.702 124.723 133.902 125.542 132.87 126.101C131.838 126.661 130.622 126.94 129.219 126.94C127.896 126.94 126.719 126.7 125.687 126.219C124.655 125.731 123.844 125.038 123.253 124.14C122.662 123.242 122.367 122.175 122.367 120.938H125.25C125.25 121.623 125.419 122.222 125.758 122.734C126.104 123.238 126.577 123.632 127.175 123.916C127.774 124.199 128.455 124.341 129.219 124.341C130.062 124.341 130.779 124.164 131.37 123.809C131.961 123.455 132.41 122.935 132.717 122.25C133.032 121.556 133.189 120.71 133.189 119.709V102.412ZM162.408 114.511C162.408 117.063 161.948 119.268 161.026 121.127C160.104 122.986 158.84 124.42 157.233 125.428C155.626 126.436 153.791 126.94 151.727 126.94C149.664 126.94 147.828 126.436 146.222 125.428C144.615 124.42 143.35 122.986 142.429 121.127C141.507 119.268 141.046 117.063 141.046 114.511C141.046 111.959 141.507 109.753 142.429 107.894C143.35 106.035 144.615 104.602 146.222 103.593C147.828 102.585 149.664 102.081 151.727 102.081C153.791 102.081 155.626 102.585 157.233 103.593C158.84 104.602 160.104 106.035 161.026 107.894C161.948 109.753 162.408 111.959 162.408 114.511ZM159.573 114.511C159.573 112.415 159.222 110.647 158.521 109.206C157.828 107.764 156.887 106.673 155.697 105.933C154.516 105.192 153.192 104.822 151.727 104.822C150.262 104.822 148.935 105.192 147.746 105.933C146.564 106.673 145.623 107.764 144.922 109.206C144.229 110.647 143.882 112.415 143.882 114.511C143.882 116.606 144.229 118.374 144.922 119.816C145.623 121.257 146.564 122.348 147.746 123.088C148.935 123.829 150.262 124.199 151.727 124.199C153.192 124.199 154.516 123.829 155.697 123.088C156.887 122.348 157.828 121.257 158.521 119.816C159.222 118.374 159.573 116.606 159.573 114.511ZM167.335 126.609V102.412H175.795C177.481 102.412 178.871 102.703 179.966 103.286C181.061 103.861 181.876 104.637 182.411 105.614C182.947 106.583 183.215 107.658 183.215 108.839C183.215 109.879 183.03 110.738 182.66 111.415C182.297 112.092 181.817 112.628 181.218 113.022C180.627 113.416 179.985 113.707 179.292 113.896V114.133C180.033 114.18 180.777 114.44 181.525 114.912C182.274 115.385 182.9 116.062 183.404 116.945C183.908 117.827 184.16 118.906 184.16 120.182C184.16 121.395 183.884 122.486 183.333 123.455C182.782 124.424 181.911 125.192 180.722 125.759C179.532 126.326 177.985 126.609 176.079 126.609H167.335ZM170.265 124.01H176.079C177.993 124.01 179.351 123.64 180.155 122.899C180.966 122.151 181.372 121.245 181.372 120.182C181.372 119.363 181.163 118.607 180.746 117.913C180.328 117.212 179.733 116.653 178.961 116.236C178.189 115.81 177.276 115.598 176.22 115.598H170.265V124.01ZM170.265 113.046H175.7C176.583 113.046 177.378 112.872 178.087 112.526C178.804 112.179 179.371 111.691 179.788 111.061C180.214 110.43 180.426 109.69 180.426 108.839C180.426 107.776 180.056 106.874 179.316 106.134C178.575 105.385 177.402 105.011 175.795 105.011H170.265V113.046Z" fill="white"/>
<path d="M117.28 136.556C117.217 135.997 116.957 135.564 116.5 135.256C116.043 134.945 115.468 134.79 114.775 134.79C114.278 134.79 113.849 134.868 113.487 135.026C113.125 135.18 112.843 135.392 112.642 135.664C112.445 135.932 112.347 136.237 112.347 136.58C112.347 136.867 112.414 137.115 112.548 137.324C112.685 137.533 112.865 137.708 113.085 137.85C113.31 137.988 113.55 138.104 113.806 138.198C114.062 138.289 114.308 138.364 114.544 138.423L115.726 138.73C116.112 138.825 116.508 138.953 116.913 139.114C117.319 139.276 117.695 139.488 118.042 139.752C118.388 140.016 118.668 140.343 118.881 140.733C119.097 141.123 119.205 141.589 119.205 142.133C119.205 142.818 119.028 143.427 118.674 143.958C118.323 144.49 117.813 144.909 117.144 145.217C116.478 145.524 115.673 145.677 114.727 145.677C113.822 145.677 113.038 145.534 112.376 145.246C111.715 144.959 111.197 144.551 110.823 144.023C110.448 143.492 110.242 142.861 110.202 142.133H112.034C112.069 142.57 112.211 142.934 112.459 143.226C112.711 143.513 113.032 143.728 113.422 143.87C113.816 144.008 114.247 144.076 114.716 144.076C115.232 144.076 115.69 143.996 116.092 143.834C116.498 143.669 116.817 143.44 117.049 143.149C117.282 142.854 117.398 142.509 117.398 142.115C117.398 141.757 117.295 141.463 117.091 141.235C116.89 141.006 116.616 140.817 116.269 140.668C115.927 140.518 115.539 140.386 115.106 140.272L113.676 139.882C112.707 139.618 111.939 139.23 111.372 138.718C110.809 138.206 110.527 137.529 110.527 136.686C110.527 135.989 110.716 135.38 111.094 134.861C111.472 134.341 111.984 133.937 112.63 133.65C113.276 133.358 114.005 133.212 114.816 133.212C115.635 133.212 116.358 133.356 116.984 133.644C117.614 133.931 118.111 134.327 118.473 134.831C118.835 135.331 119.024 135.906 119.04 136.556H117.28ZM130.831 133.378H132.662V141.335C132.662 142.182 132.463 142.932 132.065 143.586C131.668 144.236 131.108 144.748 130.388 145.122C129.667 145.492 128.822 145.677 127.853 145.677C126.888 145.677 126.046 145.492 125.325 145.122C124.604 144.748 124.045 144.236 123.647 143.586C123.249 142.932 123.05 142.182 123.05 141.335V133.378H124.876V141.188C124.876 141.735 124.996 142.221 125.236 142.647C125.48 143.072 125.825 143.407 126.27 143.651C126.715 143.891 127.243 144.011 127.853 144.011C128.468 144.011 128.997 143.891 129.442 143.651C129.891 143.407 130.234 143.072 130.47 142.647C130.711 142.221 130.831 141.735 130.831 141.188V133.378ZM136.98 145.477V133.378H141.292C142.233 133.378 143.013 133.549 143.632 133.892C144.25 134.234 144.713 134.703 145.02 135.298C145.327 135.889 145.481 136.554 145.481 137.295C145.481 138.039 145.325 138.708 145.014 139.303C144.707 139.894 144.242 140.363 143.62 140.709C143.001 141.052 142.224 141.223 141.286 141.223H138.321V139.675H141.121C141.716 139.675 142.198 139.573 142.568 139.368C142.938 139.159 143.21 138.876 143.383 138.517C143.557 138.159 143.643 137.751 143.643 137.295C143.643 136.838 143.557 136.432 143.383 136.078C143.21 135.723 142.936 135.445 142.562 135.245C142.192 135.044 141.704 134.943 141.097 134.943H138.805V145.477H136.98ZM149.284 145.477V133.378H153.597C154.538 133.378 155.318 133.549 155.936 133.892C156.555 134.234 157.017 134.703 157.324 135.298C157.632 135.889 157.785 136.554 157.785 137.295C157.785 138.039 157.63 138.708 157.319 139.303C157.011 139.894 156.547 140.363 155.924 140.709C155.306 141.052 154.528 141.223 153.591 141.223H150.625V139.675H153.425C154.02 139.675 154.503 139.573 154.873 139.368C155.243 139.159 155.515 138.876 155.688 138.517C155.861 138.159 155.948 137.751 155.948 137.295C155.948 136.838 155.861 136.432 155.688 136.078C155.515 135.723 155.241 135.445 154.867 135.245C154.497 135.044 154.008 134.943 153.402 134.943H151.11V145.477H149.284ZM172.098 139.427C172.098 140.719 171.862 141.83 171.39 142.759C170.917 143.685 170.269 144.397 169.446 144.898C168.627 145.394 167.695 145.642 166.652 145.642C165.604 145.642 164.669 145.394 163.846 144.898C163.026 144.397 162.38 143.683 161.908 142.753C161.435 141.824 161.199 140.715 161.199 139.427C161.199 138.135 161.435 137.027 161.908 136.101C162.38 135.172 163.026 134.459 163.846 133.963C164.669 133.462 165.604 133.212 166.652 133.212C167.695 133.212 168.627 133.462 169.446 133.963C170.269 134.459 170.917 135.172 171.39 136.101C171.862 137.027 172.098 138.135 172.098 139.427ZM170.291 139.427C170.291 138.443 170.131 137.614 169.812 136.94C169.497 136.263 169.064 135.751 168.513 135.404C167.965 135.054 167.345 134.878 166.652 134.878C165.955 134.878 165.332 135.054 164.785 135.404C164.237 135.751 163.804 136.263 163.485 136.94C163.17 137.614 163.013 138.443 163.013 139.427C163.013 140.412 163.17 141.243 163.485 141.92C163.804 142.594 164.237 143.106 164.785 143.456C165.332 143.803 165.955 143.976 166.652 143.976C167.345 143.976 167.965 143.803 168.513 143.456C169.064 143.106 169.497 142.594 169.812 141.92C170.131 141.243 170.291 140.412 170.291 139.427ZM176.038 145.477V133.378H180.351C181.288 133.378 182.066 133.539 182.684 133.862C183.306 134.185 183.771 134.632 184.078 135.203C184.385 135.77 184.539 136.426 184.539 137.17C184.539 137.911 184.383 138.563 184.072 139.126C183.765 139.685 183.3 140.12 182.678 140.431C182.06 140.743 181.282 140.898 180.345 140.898H177.078V139.327H180.179C180.77 139.327 181.25 139.242 181.621 139.073C181.995 138.903 182.269 138.657 182.442 138.334C182.615 138.011 182.702 137.623 182.702 137.17C182.702 136.714 182.613 136.318 182.436 135.983C182.263 135.648 181.989 135.392 181.615 135.215C181.245 135.034 180.758 134.943 180.156 134.943H177.863V145.477H176.038ZM182.011 140.018L185 145.477H182.92L179.99 140.018H182.011ZM187.827 134.949V133.378H197.191V134.949H193.416V145.477H191.596V134.949H187.827Z" fill="white"/>
</g>
<defs>
<radialGradient id="paint0_diamond_6874_195771" cx="0" cy="0" r="1" gradientUnits="userSpaceOnUse" gradientTransform="translate(152.908 107.492) rotate(90) scale(89.5393 77.5406)">
<stop stop-color="#0742C7"/>
<stop offset="1" stop-color="#031130"/>
</radialGradient>
<radialGradient id="paint1_diamond_6874_195771" cx="0" cy="0" r="1" gradientUnits="userSpaceOnUse" gradientTransform="translate(152.929 139.585) rotate(90) scale(32.39 143.964)">
<stop stop-color="#0742C7"/>
<stop offset="1" stop-color="#031130"/>
</radialGradient>
<clipPath id="clip0_6874_195771">
<rect width="305.819" height="215" fill="white"/>
</clipPath>
</defs>
</svg>
