<svg width="80" height="80" viewBox="0 0 80 80" fill="none" xmlns="http://www.w3.org/2000/svg">
<g id="carbon:quotes">
<path id="Vector" d="M30 37.5H15.275C15.7396 34.4059 16.8445 31.4426 18.519 28.7996C20.1935 26.1565 22.4008 23.8918 25 22.15L29.475 19.15L26.725 15L22.25 18C18.4832 20.5102 15.3943 23.9114 13.2573 27.9018C11.1204 31.8922 10.0015 36.3484 10 40.875V57.5C10 58.8261 10.5268 60.0979 11.4645 61.0355C12.4021 61.9732 13.6739 62.5 15 62.5H30C31.3261 62.5 32.5979 61.9732 33.5355 61.0355C34.4732 60.0979 35 58.8261 35 57.5V42.5C35 41.1739 34.4732 39.9021 33.5355 38.9645C32.5979 38.0268 31.3261 37.5 30 37.5ZM65 37.5H50.275C50.7396 34.4059 51.8445 31.4426 53.519 28.7996C55.1935 26.1565 57.4008 23.8918 60 22.15L64.475 19.15L61.75 15L57.25 18C53.4832 20.5102 50.3943 23.9114 48.2573 27.9018C46.1204 31.8922 45.0015 36.3484 45 40.875V57.5C45 58.8261 45.5268 60.0979 46.4645 61.0355C47.4021 61.9732 48.6739 62.5 50 62.5H65C66.3261 62.5 67.5979 61.9732 68.5355 61.0355C69.4732 60.0979 70 58.8261 70 57.5V42.5C70 41.1739 69.4732 39.9021 68.5355 38.9645C67.5979 38.0268 66.3261 37.5 65 37.5Z" fill="#EE4F50"/>
</g>
</svg>
